Coordinates
version=1
nRows=27
nColumns=38
inDegrees=no

Units are S.I. units (second, meters, Newtons, ...)
If the header above contains a line with 'inDegrees', this indicates whether rotational values are in degrees (yes) or radians (no).

endheader
time	pelvis_tilt	pelvis_list	pelvis_rotation	pelvis_tx	pelvis_ty	pelvis_tz	hip_flexion_r	hip_adduction_r	hip_rotation_r	knee_angle_r	ankle_angle_r	subtalar_angle_r	mtp_angle_r	hip_flexion_l	hip_adduction_l	hip_rotation_l	knee_angle_l	ankle_angle_l	subtalar_angle_l	mtp_angle_l	lumbar_extension	lumbar_bending	lumbar_rotation	arm_flex_r	arm_add_r	arm_rot_r	elbow_flex_r	pro_sup_r	wrist_flex_r	wrist_dev_r	arm_flex_l	arm_add_l	arm_rot_l	elbow_flex_l	pro_sup_l	wrist_flex_l	wrist_dev_l
1.05	2.52481	1.45403	-0.941549	0.713415	0.651389	1.03772	0.0858629	0.149694	-0.1823	0.58239	-0.0463653	0	0	0.198152	-0.0817581	-0.0374595	1.30256	-0.0839086	0	0	-0.378991	0.0826912	0.0460825	-0.0234821	-0.388776	0.803341	0.475795	0.980462	0	0	-0.0910909	-0.26896	0.395777	0.485566	1.13606	0	0
1.06	2.55349	1.45595	-0.976329	0.714308	0.65992	1.03877	0.0701598	0.146641	-0.180202	0.571689	-0.0450011	0	0	0.214857	-0.0779609	-0.0387435	1.27742	-0.0817628	0	0	-0.380379	0.07749	0.0482993	-0.0194242	-0.389318	0.80369	0.476735	0.982616	0	0	-0.0900153	-0.269016	0.392352	0.487272	1.13534	0	0
1.07	2.57427	1.45881	-1.00412	0.71529	0.668445	1.0396	0.0557679	0.144133	-0.175384	0.559878	-0.0436373	0	0	0.231576	-0.0748694	-0.0410996	1.24769	-0.0800324	0	0	-0.380957	0.0720364	0.0511983	-0.0154956	-0.389948	0.80312	0.4783	0.98469	0	0	-0.0899386	-0.2692	0.386647	0.490698	1.1364	0	0
1.08	2.59417	1.46097	-1.03134	0.716301	0.676928	1.04034	0.040674	0.142491	-0.168799	0.54736	-0.0417647	0	0	0.246229	-0.0726079	-0.0441743	1.21344	-0.0784972	0	0	-0.381343	0.0670017	0.0530073	-0.00786938	-0.392839	0.820088	0.48021	0.970959	0	0	-0.0907963	-0.270862	0.386452	0.495289	1.1317	0	0
1.09	2.6125	1.46364	-1.05664	0.717226	0.685344	1.04096	0.0269982	0.140523	-0.161968	0.536683	-0.040555	0	0	0.259924	-0.0700496	-0.0473279	1.17469	-0.0763891	0	0	-0.381345	0.0621248	0.0558206	-0.00572055	-0.392122	0.810419	0.481247	0.982465	0	0	-0.0895436	-0.271676	0.388989	0.496394	1.12963	0	0
1.1	2.6353	1.46541	-1.08644	0.718094	0.693638	1.04159	0.0122228	0.138483	-0.15435	0.525429	-0.0391312	0	0	0.270701	-0.0677875	-0.0523825	1.1308	-0.0757253	0	0	-0.382194	0.0572797	0.0578337	-0.000287901	-0.392729	0.814762	0.481746	0.98124	0	0	-0.0888262	-0.272004	0.388994	0.497307	1.12773	0	0
1.11	2.65104	1.46722	-1.10905	0.718889	0.70191	1.04201	-0.0022464	0.136916	-0.146524	0.513768	-0.0377592	0	0	0.280279	-0.0663518	-0.0588138	1.08276	-0.0771191	0	0	-0.3828	0.053227	0.0601643	0.00511068	-0.393498	0.819427	0.482105	0.979814	0	0	-0.0878026	-0.271882	0.388285	0.49768	1.12598	0	0
1.12	2.66263	1.46874	-1.12714	0.719619	0.710238	1.04234	-0.0172856	0.135607	-0.139507	0.500901	-0.0377643	0	0	0.287218	-0.0650083	-0.0650427	1.02893	-0.0821491	0	0	-0.383608	0.0497575	0.0619268	0.010461	-0.393284	0.821278	0.481301	0.983444	0	0	-0.088199	-0.268454	0.371605	0.497088	1.13928	0	0
1.13	2.67415	1.4704	-1.14444	0.720263	0.71856	1.04262	-0.0327139	0.134027	-0.133532	0.486465	-0.0388531	0	0	0.29054	-0.061707	-0.0669043	0.967829	-0.0886553	0	0	-0.384027	0.0465298	0.0623861	0.0202839	-0.395129	0.8441	0.479662	0.967749	0	0	-0.0870052	-0.269485	0.375372	0.497452	1.1314	0	0
1.14	2.68504	1.47338	-1.16057	0.720796	0.726804	1.04279	-0.0464972	0.131597	-0.128566	0.472298	-0.0390957	0	0	0.29057	-0.0551124	-0.0625032	0.897289	-0.0935981	0	0	-0.383736	0.0430712	0.0635862	0.0254005	-0.394345	0.844885	0.478027	0.971655	0	0	-0.0849835	-0.269041	0.374009	0.49648	1.13137	0	0
1.15	2.7066	1.47579	-1.18702	0.721261	0.735006	1.04302	-0.0609631	0.127947	-0.125186	0.458401	-0.0407347	0	0	0.284032	-0.0465406	-0.0548887	0.815156	-0.100216	0	0	-0.384558	0.0389985	0.0642462	0.0306539	-0.392868	0.844438	0.475824	0.97554	0	0	-0.0828472	-0.268803	0.372504	0.495739	1.13058	0	0
1.16	2.72433	1.47891	-1.21031	0.721734	0.743352	1.04305	-0.0737752	0.12374	-0.123591	0.446169	-0.0408465	0	0	0.274842	-0.039605	-0.0520127	0.72431	-0.108101	0	0	-0.384172	0.03508	0.0662057	0.0353247	-0.391889	0.845404	0.473807	0.975569	0	0	-0.0800315	-0.268031	0.371198	0.493872	1.12523	0	0
1.17	2.74097	1.48004	-1.23305	0.72224	0.751863	1.04298	-0.0889015	0.120296	-0.124409	0.433168	-0.041811	0	0	0.262681	-0.0362311	-0.058214	0.630494	-0.123074	0	0	-0.385251	0.0319691	0.0681171	0.0410131	-0.391867	0.851702	0.472285	0.973074	0	0	-0.0786968	-0.267716	0.3706	0.493584	1.12072	0	0
1.18	2.74333	1.48111	-1.24156	0.722743	0.760527	1.0425	-0.10366	0.118224	-0.126952	0.419939	-0.042151	0	0	0.252326	-0.035507	-0.0697579	0.541042	-0.143606	0	0	-0.385986	0.0301692	0.0709513	0.0424747	-0.390788	0.841002	0.472115	0.987743	0	0	-0.0788204	-0.265134	0.359994	0.493293	1.12841	0	0
1.19	2.72944	1.48263	-1.23321	0.723135	0.769254	1.04158	-0.117047	0.117329	-0.130906	0.407477	-0.0410341	0	0	0.245002	-0.0359357	-0.0812201	0.45889	-0.165575	0	0	-0.384473	0.0301055	0.0715769	0.0523043	-0.395558	0.875419	0.473108	0.960216	0	0	-0.0805954	-0.263498	0.353299	0.493686	1.13162	0	0
1.2	2.68993	1.48727	-1.19892	0.723356	0.778217	1.04005	-0.124943	0.116924	-0.134516	0.399364	-0.0388716	0	0	0.244281	-0.0366301	-0.0911742	0.387706	-0.178675	0	0	-0.379314	0.0312751	0.075013	0.049461	-0.394412	0.855357	0.473583	0.982338	0	0	-0.0793538	-0.263667	0.36266	0.492036	1.12376	0	0
1.21	2.65406	1.49131	-1.16816	0.723387	0.787285	1.03841	-0.132767	0.115713	-0.137499	0.393578	-0.0363203	0	0	0.243285	-0.0357517	-0.100882	0.321596	-0.195286	0	0	-0.374601	0.0323063	0.0767983	0.0519108	-0.396686	0.86145	0.475026	0.979137	0	0	-0.0801469	-0.261928	0.362254	0.490618	1.12408	0	0
1.22	2.61892	1.49488	-1.13721	0.723182	0.796299	1.0367	-0.140084	0.113936	-0.142627	0.389797	-0.0333991	0	0	0.243046	-0.0332857	-0.108929	0.262994	-0.211893	0	0	-0.370763	0.0336299	0.0774517	0.0543964	-0.399622	0.867313	0.477877	0.975401	0	0	-0.0812984	-0.259984	0.360244	0.490068	1.12574	0	0
1.23	2.59711	1.49748	-1.11889	0.722809	0.805429	1.03498	-0.148238	0.111351	-0.146045	0.387972	-0.029801	0	0	0.242448	-0.0288151	-0.116057	0.213111	-0.226915	0	0	-0.368052	0.0345683	0.0768277	0.0566528	-0.40316	0.873301	0.482198	0.971298	0	0	-0.0831948	-0.258013	0.356477	0.490352	1.12692	0	0
1.24	2.59069	1.50029	-1.11517	0.722362	0.81487	1.03323	-0.157024	0.107549	-0.149147	0.386094	-0.0254616	0	0	0.241892	-0.0220302	-0.122797	0.170304	-0.242239	0	0	-0.365802	0.0342206	0.0764403	0.0536112	-0.403913	0.857856	0.486398	0.98616	0	0	-0.0857761	-0.252741	0.336869	0.488989	1.14571	0	0
1.25	2.60688	1.50192	-1.13376	0.721897	0.824576	1.03161	-0.167678	0.10272	-0.153483	0.384168	-0.0211827	0	0	0.240037	-0.0139763	-0.131408	0.136108	-0.25209	0	0	-0.364409	0.0328658	0.0746251	0.0578985	-0.408201	0.879017	0.489869	0.965922	0	0	-0.0877682	-0.250899	0.332286	0.487533	1.14746	0	0
1.26	2.63529	1.50334	-1.165	0.721469	0.834388	1.03005	-0.177861	0.0970566	-0.156845	0.38422	-0.0193542	0	0	0.239975	-0.00584333	-0.145297	0.115308	-0.251707	0	0	-0.363757	0.0303321	0.0745344	0.0556919	-0.406962	0.868035	0.489924	0.978156	0	0	-0.0878517	-0.25007	0.334206	0.484629	1.14421	0	0
1.27	2.68633	1.50155	-1.2192	0.72112	0.844142	1.02879	-0.191233	0.0913174	-0.158337	0.384906	-0.0162711	0	0	0.235704	0.00199141	-0.158197	0.0993898	-0.253145	0	0	-0.367315	0.0272012	0.0748203	0.0567413	-0.408639	0.872221	0.492579	0.973748	0	0	-0.0881482	-0.249177	0.332052	0.483348	1.14376	0	0
1.28	2.7332	1.49904	-1.2698	0.720925	0.853906	1.02752	-0.203097	0.0856056	-0.159254	0.389948	-0.0130704	0	0	0.231605	0.00877416	-0.170662	0.0917042	-0.253927	0	0	-0.371441	0.0237751	0.0762797	0.0573795	-0.410351	0.87609	0.495678	0.96933	0	0	-0.0888345	-0.249068	0.329491	0.483949	1.14269	0	0
1.29	2.76628	1.49657	-1.30625	0.720885	0.863824	1.02619	-0.213821	0.0807681	-0.159538	0.396464	-0.0101618	0	0	0.228651	0.0140488	-0.181446	0.0928873	-0.254699	0	0	-0.374693	0.0206554	0.077782	0.0576776	-0.411023	0.879884	0.497656	0.964906	0	0	-0.0903669	-0.249671	0.326477	0.485579	1.14002	0	0
1.3	2.78656	1.49409	-1.32966	0.720975	0.873981	1.02481	-0.223822	0.0768036	-0.158863	0.403828	-0.0076165	0	0	0.22588	0.0177793	-0.189791	0.101411	-0.254963	0	0	-0.377787	0.0178818	0.0806347	0.0515804	-0.408321	0.8576	0.499634	0.983759	0	0	-0.092051	-0.250338	0.322509	0.487626	1.14116	0	0
1.31	2.79318	1.49282	-1.33961	0.721196	0.884381	1.02331	-0.231815	0.0739786	-0.156619	0.412432	-0.00677787	0	0	0.223963	0.0199749	-0.193571	0.115758	-0.254454	0	0	-0.377866	0.0154508	0.0821961	0.0515069	-0.406692	0.862737	0.498217	0.979773	0	0	-0.0948894	-0.25174	0.322964	0.488015	1.14436	0	0
